<mxfile host="65bd71144e">
    <diagram id="hPD14SkwtZDkbTMTvTvp" name="Page-1">
        <mxGraphModel dx="1836" dy="1535" grid="0" gridSize="1" guides="1" tooltips="1" connect="1" arrows="1" fold="1" page="1" pageScale="1" pageWidth="850" pageHeight="1100" math="0" shadow="0">
            <root>
                <mxCell id="0"/>
                <mxCell id="1" parent="0"/>
                <mxCell id="13" style="edgeStyle=orthogonalEdgeStyle;html=1;endArrow=none;endFill=0;bendable=1;noJump=0;flowAnimation=0;ignoreEdge=0;orthogonalLoop=0;orthogonal=0;enumerate=0;comic=0;arcSize=0;startFill=1;entryX=0;entryY=0.5;entryDx=0;entryDy=0;exitX=0;exitY=0;exitDx=40;exitDy=10;exitPerimeter=0;strokeColor=#33FFFF;" parent="1" source="19" target="xuoFPVKf5IApUfL9so8E-78" edge="1">
                    <mxGeometry relative="1" as="geometry">
                        <mxPoint x="-700" y="-430" as="sourcePoint"/>
                        <mxPoint x="-300" y="-510" as="targetPoint"/>
                        <Array as="points">
                            <mxPoint x="-350" y="-430"/>
                            <mxPoint x="-350" y="-501"/>
                            <mxPoint x="-276" y="-501"/>
                        </Array>
                    </mxGeometry>
                </mxCell>
                <mxCell id="14" style="edgeStyle=orthogonalEdgeStyle;html=1;endArrow=none;endFill=0;bendable=1;noJump=0;flowAnimation=0;ignoreEdge=0;orthogonalLoop=0;orthogonal=0;enumerate=0;comic=0;arcSize=0;startFill=1;entryX=0;entryY=0.5;entryDx=0;entryDy=0;strokeColor=#33FFFF;" parent="1" target="xuoFPVKf5IApUfL9so8E-55" edge="1">
                    <mxGeometry relative="1" as="geometry">
                        <mxPoint x="-650" y="-430" as="sourcePoint"/>
                        <mxPoint x="-620" y="-540" as="targetPoint"/>
                        <Array as="points">
                            <mxPoint x="-650" y="-539"/>
                        </Array>
                    </mxGeometry>
                </mxCell>
                <mxCell id="19" value="CLK" style="externalPins=0;recursiveResize=0;shadow=0;dashed=0;align=center;html=1;strokeWidth=1;shape=mxgraph.rtl.abstract.entity;container=1;collapsible=0;kind=input;drawPins=0;left=0;right=1;bottom=0;top=0;comic=0;sketch=0;strokeColor=#33FFFF;" parent="1" vertex="1">
                    <mxGeometry x="-740" y="-440" width="40" height="20" as="geometry"/>
                </mxCell>
                <mxCell id="23" style="edgeStyle=orthogonalEdgeStyle;comic=0;html=1;exitX=0;exitY=0;exitDx=20;exitDy=10;exitPerimeter=0;entryX=0;entryY=0.5;entryDx=0;entryDy=0;startFill=1;endArrow=none;endFill=0;" parent="1" source="20" target="xuoFPVKf5IApUfL9so8E-43" edge="1">
                    <mxGeometry relative="1" as="geometry"/>
                </mxCell>
                <mxCell id="20" value="RST1" style="externalPins=0;recursiveResize=0;shadow=0;dashed=0;align=center;html=1;strokeWidth=1;shape=mxgraph.rtl.abstract.entity;container=1;collapsible=0;kind=input;drawPins=0;left=0;right=1;bottom=0;top=0;comic=0;sketch=0;" parent="1" vertex="1">
                    <mxGeometry x="-740" y="-590" width="40" height="20" as="geometry"/>
                </mxCell>
                <mxCell id="xuoFPVKf5IApUfL9so8E-37" value="0" style="shape=offPageConnector;html=1;rotation=0;direction=north;" parent="1" vertex="1">
                    <mxGeometry x="-631.5" y="-630.5" width="22" height="19" as="geometry"/>
                </mxCell>
                <mxCell id="xuoFPVKf5IApUfL9so8E-41" value="0" style="shape=offPageConnector;html=1;rotation=0;direction=north;" parent="1" vertex="1">
                    <mxGeometry x="-631.4" y="-677" width="22" height="19" as="geometry"/>
                </mxCell>
                <UserObject label="" link="http://127.0.0.1:8000/block/microarchitecture/sub1/" id="xuoFPVKf5IApUfL9so8E-73">
                    <mxCell style="group" parent="1" vertex="1" connectable="0">
                        <mxGeometry x="-608.91" y="-700" width="215.9099999999999" height="220" as="geometry"/>
                    </mxCell>
                </UserObject>
                <UserObject label="Submodule 1" link="http://127.0.0.1:8000/block/microarchitecture/sub1/" id="2">
                    <mxCell style="externalPins=0;recursiveResize=0;shadow=0;dashed=0;align=center;html=1;strokeWidth=1;shape=mxgraph.rtl.abstract.entity;container=1;collapsible=0;kind=sequential;drawPins=0;left=0;right=0;bottom=0;top=0;type=none;treeFolding=0;comic=0;enumerate=0;moveCells=0;metaEdit=0;backgroundOutline=0;snapToPoint=0;noLabel=0;rightArr=output%201%3Ao,output%202%3Ao;type_size=30;" parent="xuoFPVKf5IApUfL9so8E-73" vertex="1">
                        <mxGeometry x="19.909999999999968" width="180" height="220" as="geometry"/>
                    </mxCell>
                </UserObject>
                <mxCell id="xuoFPVKf5IApUfL9so8E-45" value="input 1" style="text;html=1;align=center;verticalAlign=middle;whiteSpace=wrap;rounded=0;" parent="2" vertex="1">
                    <mxGeometry y="25.75" width="41" height="13.5" as="geometry"/>
                </mxCell>
                <mxCell id="xuoFPVKf5IApUfL9so8E-53" value="input 2" style="text;html=1;align=center;verticalAlign=middle;whiteSpace=wrap;rounded=0;" parent="2" vertex="1">
                    <mxGeometry y="72.25" width="42" height="13.5" as="geometry"/>
                </mxCell>
                <mxCell id="xuoFPVKf5IApUfL9so8E-55" value="" style="triangle;whiteSpace=wrap;html=1;fillColor=#33FFFF;" parent="2" vertex="1">
                    <mxGeometry y="152" width="12" height="17" as="geometry"/>
                </mxCell>
                <mxCell id="xuoFPVKf5IApUfL9so8E-56" value="reset" style="text;html=1;align=center;verticalAlign=middle;whiteSpace=wrap;rounded=0;" parent="2" vertex="1">
                    <mxGeometry y="113" width="29" height="13.5" as="geometry"/>
                </mxCell>
                <mxCell id="xuoFPVKf5IApUfL9so8E-72" value="clk" style="text;html=1;align=center;verticalAlign=middle;whiteSpace=wrap;rounded=0;" parent="2" vertex="1">
                    <mxGeometry x="12" y="153.75" width="29" height="13.5" as="geometry"/>
                </mxCell>
                <mxCell id="xuoFPVKf5IApUfL9so8E-98" value="output 1" style="text;html=1;align=center;verticalAlign=middle;whiteSpace=wrap;rounded=0;" parent="2" vertex="1">
                    <mxGeometry x="130" y="63" width="50" height="13.5" as="geometry"/>
                </mxCell>
                <mxCell id="xuoFPVKf5IApUfL9so8E-99" value="output 2" style="text;html=1;align=center;verticalAlign=middle;whiteSpace=wrap;rounded=0;" parent="2" vertex="1">
                    <mxGeometry x="131" y="132" width="49" height="13.5" as="geometry"/>
                </mxCell>
                <mxCell id="xuoFPVKf5IApUfL9so8E-32" style="edgeStyle=orthogonalEdgeStyle;comic=0;html=1;exitX=0.5;exitY=1;exitDx=0;exitDy=0;entryX=0;entryY=0.5;entryDx=0;entryDy=0;startFill=1;endArrow=none;endFill=0;" parent="xuoFPVKf5IApUfL9so8E-73" source="xuoFPVKf5IApUfL9so8E-37" target="xuoFPVKf5IApUfL9so8E-34" edge="1">
                    <mxGeometry relative="1" as="geometry">
                        <mxPoint x="9.949999999999932" y="79" as="targetPoint"/>
                        <mxPoint x="-1.0500000000000682" y="79" as="sourcePoint"/>
                    </mxGeometry>
                </mxCell>
                <mxCell id="xuoFPVKf5IApUfL9so8E-34" value="" style="triangle;whiteSpace=wrap;html=1;fillColor=#000000;" parent="xuoFPVKf5IApUfL9so8E-73" vertex="1">
                    <mxGeometry x="6.949999999999932" y="74" width="8.96" height="10" as="geometry"/>
                </mxCell>
                <mxCell id="xuoFPVKf5IApUfL9so8E-35" style="edgeStyle=orthogonalEdgeStyle;rounded=0;orthogonalLoop=1;jettySize=auto;html=1;exitX=1;exitY=0.5;exitDx=0;exitDy=0;entryX=1.435;entryY=0.508;entryDx=0;entryDy=0;entryPerimeter=0;endArrow=none;endFill=0;" parent="xuoFPVKf5IApUfL9so8E-73" source="xuoFPVKf5IApUfL9so8E-34" target="xuoFPVKf5IApUfL9so8E-34" edge="1">
                    <mxGeometry relative="1" as="geometry"/>
                </mxCell>
                <mxCell id="xuoFPVKf5IApUfL9so8E-38" style="edgeStyle=orthogonalEdgeStyle;comic=0;html=1;exitX=0.5;exitY=1;exitDx=0;exitDy=0;entryX=0;entryY=0.5;entryDx=0;entryDy=0;startFill=1;endArrow=none;endFill=0;" parent="xuoFPVKf5IApUfL9so8E-73" source="xuoFPVKf5IApUfL9so8E-41" target="xuoFPVKf5IApUfL9so8E-39" edge="1">
                    <mxGeometry relative="1" as="geometry">
                        <mxPoint x="10.049999999999955" y="32.5" as="targetPoint"/>
                        <mxPoint x="-0.9500000000000455" y="32.5" as="sourcePoint"/>
                    </mxGeometry>
                </mxCell>
                <mxCell id="xuoFPVKf5IApUfL9so8E-39" value="" style="triangle;whiteSpace=wrap;html=1;fillColor=#000000;" parent="xuoFPVKf5IApUfL9so8E-73" vertex="1">
                    <mxGeometry x="7.0499999999999545" y="27.5" width="8.96" height="10" as="geometry"/>
                </mxCell>
                <mxCell id="xuoFPVKf5IApUfL9so8E-40" style="edgeStyle=orthogonalEdgeStyle;rounded=0;orthogonalLoop=1;jettySize=auto;html=1;exitX=1;exitY=0.5;exitDx=0;exitDy=0;entryX=1.435;entryY=0.508;entryDx=0;entryDy=0;entryPerimeter=0;endArrow=none;endFill=0;" parent="xuoFPVKf5IApUfL9so8E-73" source="xuoFPVKf5IApUfL9so8E-39" target="xuoFPVKf5IApUfL9so8E-39" edge="1">
                    <mxGeometry relative="1" as="geometry"/>
                </mxCell>
                <mxCell id="xuoFPVKf5IApUfL9so8E-42" style="edgeStyle=orthogonalEdgeStyle;comic=0;html=1;exitX=0.5;exitY=1;exitDx=0;exitDy=0;entryX=0;entryY=0.5;entryDx=0;entryDy=0;startFill=1;endArrow=none;endFill=0;" parent="xuoFPVKf5IApUfL9so8E-73" target="xuoFPVKf5IApUfL9so8E-43" edge="1">
                    <mxGeometry relative="1" as="geometry">
                        <mxPoint x="10.039999999999964" y="120" as="targetPoint"/>
                        <mxPoint y="120" as="sourcePoint"/>
                    </mxGeometry>
                </mxCell>
                <mxCell id="xuoFPVKf5IApUfL9so8E-43" value="" style="triangle;whiteSpace=wrap;html=1;fillColor=#000000;" parent="xuoFPVKf5IApUfL9so8E-73" vertex="1">
                    <mxGeometry x="7.039999999999964" y="115" width="8.96" height="10" as="geometry"/>
                </mxCell>
                <mxCell id="xuoFPVKf5IApUfL9so8E-44" style="edgeStyle=orthogonalEdgeStyle;rounded=0;orthogonalLoop=1;jettySize=auto;html=1;exitX=1;exitY=0.5;exitDx=0;exitDy=0;entryX=1.435;entryY=0.508;entryDx=0;entryDy=0;entryPerimeter=0;endArrow=none;endFill=0;" parent="xuoFPVKf5IApUfL9so8E-73" source="xuoFPVKf5IApUfL9so8E-43" target="xuoFPVKf5IApUfL9so8E-43" edge="1">
                    <mxGeometry relative="1" as="geometry"/>
                </mxCell>
                <mxCell id="xuoFPVKf5IApUfL9so8E-57" style="edgeStyle=orthogonalEdgeStyle;comic=0;html=1;exitX=0.5;exitY=1;exitDx=0;exitDy=0;entryX=0;entryY=0.5;entryDx=0;entryDy=0;startFill=1;endArrow=none;endFill=0;" parent="xuoFPVKf5IApUfL9so8E-73" target="xuoFPVKf5IApUfL9so8E-58" edge="1">
                    <mxGeometry relative="1" as="geometry">
                        <mxPoint x="209.94999999999993" y="70" as="targetPoint"/>
                        <mxPoint x="199.90999999999997" y="70" as="sourcePoint"/>
                    </mxGeometry>
                </mxCell>
                <mxCell id="xuoFPVKf5IApUfL9so8E-58" value="" style="triangle;whiteSpace=wrap;html=1;fillColor=#000000;" parent="xuoFPVKf5IApUfL9so8E-73" vertex="1">
                    <mxGeometry x="206.94999999999993" y="65" width="8.96" height="10" as="geometry"/>
                </mxCell>
                <mxCell id="xuoFPVKf5IApUfL9so8E-60" style="edgeStyle=orthogonalEdgeStyle;comic=0;html=1;exitX=0.5;exitY=1;exitDx=0;exitDy=0;entryX=0;entryY=0.5;entryDx=0;entryDy=0;startFill=1;endArrow=none;endFill=0;" parent="xuoFPVKf5IApUfL9so8E-73" target="xuoFPVKf5IApUfL9so8E-61" edge="1">
                    <mxGeometry relative="1" as="geometry">
                        <mxPoint x="209.94999999999993" y="140" as="targetPoint"/>
                        <mxPoint x="199.90999999999997" y="140" as="sourcePoint"/>
                    </mxGeometry>
                </mxCell>
                <mxCell id="xuoFPVKf5IApUfL9so8E-61" value="" style="triangle;whiteSpace=wrap;html=1;fillColor=#000000;" parent="xuoFPVKf5IApUfL9so8E-73" vertex="1">
                    <mxGeometry x="206.94999999999993" y="135" width="8.96" height="10" as="geometry"/>
                </mxCell>
                <UserObject label="" link="http://127.0.0.1:8000/block/microarchitecture/sub1/" id="xuoFPVKf5IApUfL9so8E-74">
                    <mxCell style="group" parent="1" vertex="1" connectable="0">
                        <mxGeometry x="-295.99999999999994" y="-662" width="215.9099999999999" height="220" as="geometry"/>
                    </mxCell>
                </UserObject>
                <UserObject label="Submodule 2" link="http://127.0.0.1:8000/block/microarchitecture/sub1/" id="xuoFPVKf5IApUfL9so8E-75">
                    <mxCell style="externalPins=1;recursiveResize=0;shadow=0;dashed=0;align=center;html=1;strokeWidth=1;shape=mxgraph.rtl.abstract.entity;container=1;collapsible=0;kind=sequential;drawPins=1;left=0;right=0;bottom=0;top=0;type=none;treeFolding=0;comic=0;enumerate=0;moveCells=0;metaEdit=0;backgroundOutline=0;snapToPoint=0;noLabel=0;rightArr=output%201%3Ao,output%202%3Ao;rightRot=180;" parent="xuoFPVKf5IApUfL9so8E-74" vertex="1">
                        <mxGeometry x="19.909999999999968" width="180" height="220" as="geometry"/>
                    </mxCell>
                </UserObject>
                <mxCell id="xuoFPVKf5IApUfL9so8E-76" value="input 1" style="text;html=1;align=center;verticalAlign=middle;whiteSpace=wrap;rounded=0;" parent="xuoFPVKf5IApUfL9so8E-75" vertex="1">
                    <mxGeometry y="25.75" width="41" height="13.5" as="geometry"/>
                </mxCell>
                <mxCell id="xuoFPVKf5IApUfL9so8E-77" value="input 2" style="text;html=1;align=center;verticalAlign=middle;whiteSpace=wrap;rounded=0;" parent="xuoFPVKf5IApUfL9so8E-75" vertex="1">
                    <mxGeometry y="72.25" width="42" height="13.5" as="geometry"/>
                </mxCell>
                <mxCell id="xuoFPVKf5IApUfL9so8E-78" value="" style="triangle;whiteSpace=wrap;html=1;fillColor=#33FFFF;" parent="xuoFPVKf5IApUfL9so8E-75" vertex="1">
                    <mxGeometry y="152" width="12" height="17" as="geometry"/>
                </mxCell>
                <mxCell id="xuoFPVKf5IApUfL9so8E-79" value="reset" style="text;html=1;align=center;verticalAlign=middle;whiteSpace=wrap;rounded=0;" parent="xuoFPVKf5IApUfL9so8E-75" vertex="1">
                    <mxGeometry y="113" width="29" height="13.5" as="geometry"/>
                </mxCell>
                <mxCell id="xuoFPVKf5IApUfL9so8E-80" value="clk" style="text;html=1;align=center;verticalAlign=middle;whiteSpace=wrap;rounded=0;" parent="xuoFPVKf5IApUfL9so8E-75" vertex="1">
                    <mxGeometry x="12" y="153.75" width="29" height="13.5" as="geometry"/>
                </mxCell>
                <mxCell id="xuoFPVKf5IApUfL9so8E-101" value="output 2" style="text;html=1;align=center;verticalAlign=middle;whiteSpace=wrap;rounded=0;" parent="xuoFPVKf5IApUfL9so8E-75" vertex="1">
                    <mxGeometry x="133" y="133" width="47" height="13.5" as="geometry"/>
                </mxCell>
                <mxCell id="xuoFPVKf5IApUfL9so8E-81" style="edgeStyle=orthogonalEdgeStyle;comic=0;html=1;exitX=0.5;exitY=1;exitDx=0;exitDy=0;entryX=0;entryY=0.5;entryDx=0;entryDy=0;startFill=1;endArrow=none;endFill=0;" parent="xuoFPVKf5IApUfL9so8E-74" target="xuoFPVKf5IApUfL9so8E-82" edge="1">
                    <mxGeometry relative="1" as="geometry">
                        <mxPoint x="9.949999999999932" y="79" as="targetPoint"/>
                        <mxPoint x="-1.0500000000000682" y="79" as="sourcePoint"/>
                    </mxGeometry>
                </mxCell>
                <mxCell id="xuoFPVKf5IApUfL9so8E-82" value="" style="triangle;whiteSpace=wrap;html=1;fillColor=#000000;" parent="xuoFPVKf5IApUfL9so8E-74" vertex="1">
                    <mxGeometry x="6.949999999999932" y="74" width="8.96" height="10" as="geometry"/>
                </mxCell>
                <mxCell id="xuoFPVKf5IApUfL9so8E-83" style="edgeStyle=orthogonalEdgeStyle;rounded=0;orthogonalLoop=1;jettySize=auto;html=1;exitX=1;exitY=0.5;exitDx=0;exitDy=0;entryX=1.435;entryY=0.508;entryDx=0;entryDy=0;entryPerimeter=0;endArrow=none;endFill=0;" parent="xuoFPVKf5IApUfL9so8E-74" source="xuoFPVKf5IApUfL9so8E-82" target="xuoFPVKf5IApUfL9so8E-82" edge="1">
                    <mxGeometry relative="1" as="geometry"/>
                </mxCell>
                <mxCell id="xuoFPVKf5IApUfL9so8E-84" style="edgeStyle=orthogonalEdgeStyle;comic=0;html=1;exitX=0.5;exitY=1;exitDx=0;exitDy=0;entryX=0;entryY=0.5;entryDx=0;entryDy=0;startFill=1;endArrow=none;endFill=0;" parent="xuoFPVKf5IApUfL9so8E-74" target="xuoFPVKf5IApUfL9so8E-85" edge="1">
                    <mxGeometry relative="1" as="geometry">
                        <mxPoint x="10.049999999999955" y="32.5" as="targetPoint"/>
                        <mxPoint x="-0.9500000000000455" y="32.5" as="sourcePoint"/>
                    </mxGeometry>
                </mxCell>
                <mxCell id="xuoFPVKf5IApUfL9so8E-85" value="" style="triangle;whiteSpace=wrap;html=1;fillColor=#000000;" parent="xuoFPVKf5IApUfL9so8E-74" vertex="1">
                    <mxGeometry x="7.0499999999999545" y="27.5" width="8.96" height="10" as="geometry"/>
                </mxCell>
                <mxCell id="xuoFPVKf5IApUfL9so8E-86" style="edgeStyle=orthogonalEdgeStyle;rounded=0;orthogonalLoop=1;jettySize=auto;html=1;exitX=1;exitY=0.5;exitDx=0;exitDy=0;entryX=1.435;entryY=0.508;entryDx=0;entryDy=0;entryPerimeter=0;endArrow=none;endFill=0;" parent="xuoFPVKf5IApUfL9so8E-74" source="xuoFPVKf5IApUfL9so8E-85" target="xuoFPVKf5IApUfL9so8E-85" edge="1">
                    <mxGeometry relative="1" as="geometry"/>
                </mxCell>
                <mxCell id="xuoFPVKf5IApUfL9so8E-87" style="edgeStyle=orthogonalEdgeStyle;comic=0;html=1;exitX=0.5;exitY=1;exitDx=0;exitDy=0;entryX=0;entryY=0.5;entryDx=0;entryDy=0;startFill=1;endArrow=none;endFill=0;" parent="xuoFPVKf5IApUfL9so8E-74" target="xuoFPVKf5IApUfL9so8E-88" edge="1">
                    <mxGeometry relative="1" as="geometry">
                        <mxPoint x="10.039999999999964" y="120" as="targetPoint"/>
                        <mxPoint y="120" as="sourcePoint"/>
                    </mxGeometry>
                </mxCell>
                <mxCell id="xuoFPVKf5IApUfL9so8E-88" value="" style="triangle;whiteSpace=wrap;html=1;fillColor=#000000;" parent="xuoFPVKf5IApUfL9so8E-74" vertex="1">
                    <mxGeometry x="7.039999999999964" y="115" width="8.96" height="10" as="geometry"/>
                </mxCell>
                <mxCell id="xuoFPVKf5IApUfL9so8E-89" style="edgeStyle=orthogonalEdgeStyle;rounded=0;orthogonalLoop=1;jettySize=auto;html=1;exitX=1;exitY=0.5;exitDx=0;exitDy=0;entryX=1.435;entryY=0.508;entryDx=0;entryDy=0;entryPerimeter=0;endArrow=none;endFill=0;" parent="xuoFPVKf5IApUfL9so8E-74" source="xuoFPVKf5IApUfL9so8E-88" target="xuoFPVKf5IApUfL9so8E-88" edge="1">
                    <mxGeometry relative="1" as="geometry"/>
                </mxCell>
                <mxCell id="xuoFPVKf5IApUfL9so8E-90" style="edgeStyle=orthogonalEdgeStyle;comic=0;html=1;exitX=0.5;exitY=1;exitDx=0;exitDy=0;entryX=0;entryY=0.5;entryDx=0;entryDy=0;startFill=1;endArrow=none;endFill=0;" parent="xuoFPVKf5IApUfL9so8E-74" target="xuoFPVKf5IApUfL9so8E-91" edge="1">
                    <mxGeometry relative="1" as="geometry">
                        <mxPoint x="209.94999999999993" y="70" as="targetPoint"/>
                        <mxPoint x="199.90999999999997" y="70" as="sourcePoint"/>
                    </mxGeometry>
                </mxCell>
                <mxCell id="xuoFPVKf5IApUfL9so8E-91" value="" style="triangle;whiteSpace=wrap;html=1;fillColor=#000000;" parent="xuoFPVKf5IApUfL9so8E-74" vertex="1">
                    <mxGeometry x="206.94999999999993" y="65" width="8.96" height="10" as="geometry"/>
                </mxCell>
                <mxCell id="xuoFPVKf5IApUfL9so8E-92" style="edgeStyle=orthogonalEdgeStyle;rounded=0;orthogonalLoop=1;jettySize=auto;html=1;exitX=1;exitY=0.5;exitDx=0;exitDy=0;entryX=1.435;entryY=0.508;entryDx=0;entryDy=0;entryPerimeter=0;endArrow=none;endFill=0;" parent="xuoFPVKf5IApUfL9so8E-74" source="xuoFPVKf5IApUfL9so8E-91" target="xuoFPVKf5IApUfL9so8E-91" edge="1">
                    <mxGeometry relative="1" as="geometry"/>
                </mxCell>
                <mxCell id="xuoFPVKf5IApUfL9so8E-93" style="edgeStyle=orthogonalEdgeStyle;comic=0;html=1;exitX=0.5;exitY=1;exitDx=0;exitDy=0;entryX=0;entryY=0.5;entryDx=0;entryDy=0;startFill=1;endArrow=none;endFill=0;" parent="xuoFPVKf5IApUfL9so8E-74" target="xuoFPVKf5IApUfL9so8E-94" edge="1">
                    <mxGeometry relative="1" as="geometry">
                        <mxPoint x="209.94999999999993" y="140" as="targetPoint"/>
                        <mxPoint x="199.90999999999997" y="140" as="sourcePoint"/>
                    </mxGeometry>
                </mxCell>
                <mxCell id="xuoFPVKf5IApUfL9so8E-94" value="" style="triangle;whiteSpace=wrap;html=1;fillColor=#000000;" parent="xuoFPVKf5IApUfL9so8E-74" vertex="1">
                    <mxGeometry x="206.94999999999993" y="135" width="8.96" height="10" as="geometry"/>
                </mxCell>
                <mxCell id="xuoFPVKf5IApUfL9so8E-95" style="edgeStyle=orthogonalEdgeStyle;rounded=0;orthogonalLoop=1;jettySize=auto;html=1;exitX=1;exitY=0.5;exitDx=0;exitDy=0;entryX=1.435;entryY=0.508;entryDx=0;entryDy=0;entryPerimeter=0;endArrow=none;endFill=0;" parent="xuoFPVKf5IApUfL9so8E-74" source="xuoFPVKf5IApUfL9so8E-94" target="xuoFPVKf5IApUfL9so8E-94" edge="1">
                    <mxGeometry relative="1" as="geometry"/>
                </mxCell>
                <mxCell id="xuoFPVKf5IApUfL9so8E-100" value="output 1" style="text;html=1;align=center;verticalAlign=middle;whiteSpace=wrap;rounded=0;" parent="xuoFPVKf5IApUfL9so8E-74" vertex="1">
                    <mxGeometry x="151" y="63.25" width="48.91" height="13.5" as="geometry"/>
                </mxCell>
                <mxCell id="xuoFPVKf5IApUfL9so8E-59" style="edgeStyle=orthogonalEdgeStyle;rounded=0;orthogonalLoop=1;jettySize=auto;html=1;exitX=1;exitY=0.5;exitDx=0;exitDy=0;entryX=0;entryY=0.5;entryDx=0;entryDy=0;endArrow=none;endFill=0;" parent="1" source="xuoFPVKf5IApUfL9so8E-58" target="xuoFPVKf5IApUfL9so8E-85" edge="1">
                    <mxGeometry relative="1" as="geometry"/>
                </mxCell>
                <mxCell id="xuoFPVKf5IApUfL9so8E-62" style="edgeStyle=orthogonalEdgeStyle;rounded=0;orthogonalLoop=1;jettySize=auto;html=1;exitX=1;exitY=0.5;exitDx=0;exitDy=0;entryX=0;entryY=0.5;entryDx=0;entryDy=0;endArrow=none;endFill=0;" parent="1" source="xuoFPVKf5IApUfL9so8E-61" target="xuoFPVKf5IApUfL9so8E-82" edge="1">
                    <mxGeometry relative="1" as="geometry"/>
                </mxCell>
                <mxCell id="xuoFPVKf5IApUfL9so8E-96" style="edgeStyle=orthogonalEdgeStyle;comic=0;html=1;exitX=0;exitY=0;exitDx=20;exitDy=10;exitPerimeter=0;entryX=0;entryY=0.5;entryDx=0;entryDy=0;startFill=1;endArrow=none;endFill=0;arcSize=0;" parent="1" source="xuoFPVKf5IApUfL9so8E-97" target="xuoFPVKf5IApUfL9so8E-88" edge="1">
                    <mxGeometry relative="1" as="geometry">
                        <mxPoint x="-288.96000000000004" y="-544" as="targetPoint"/>
                    </mxGeometry>
                </mxCell>
                <mxCell id="xuoFPVKf5IApUfL9so8E-97" value="RST2" style="externalPins=0;recursiveResize=0;shadow=0;dashed=0;align=center;html=1;strokeWidth=1;shape=mxgraph.rtl.abstract.entity;container=1;collapsible=0;kind=input;drawPins=0;left=0;right=1;bottom=0;top=0;comic=0;sketch=0;" parent="1" vertex="1">
                    <mxGeometry x="-369" y="-539" width="40" height="20" as="geometry"/>
                </mxCell>
            </root>
        </mxGraphModel>
    </diagram>
</mxfile>